<svg width="32" height="32" fill="none" xmlns="http://www.w3.org/2000/svg"><g clip-path="url(#a)"><path d="M32 16.0977c0-8.836-7.164-16-16-16s-16 7.164-16 16C0 24.0843 5.8507 30.703 13.5 31.903v-11.18H9.4373v-4.6267H13.5v-3.5226c0-4.0094 2.3893-6.2254 6.044-6.2254 1.7493 0 3.5813.3134 3.5813.3134v3.9373h-2.0186c-1.988 0-2.608 1.2333-2.608 2.4987v3h4.4373l-.7093 4.6266h-3.728v11.18C26.1493 30.703 32 24.083 32 16.0977Z" fill="#fff"/></g><defs><clipPath id="a"><path fill="#fff" d="M0 0h32v32H0z"/></clipPath></defs></svg>