<svg width="32" height="32" fill="none" xmlns="http://www.w3.org/2000/svg"><g clip-path="url(#a)"><path d="M16 0c-4.3467 0-4.8893.02-6.596.096C7.7.176 6.54.444 5.52.84c-1.052.408-1.9453.956-2.8347 1.8453C1.796 3.5747 1.2467 4.4667.84 5.52.444 6.54.1747 7.7.096 9.404.016 11.1107 0 11.6533 0 16s.02 4.8893.096 6.596c.08 1.7027.348 2.864.744 3.884.408 1.0507.956 1.9453 1.8453 2.8347.8894.888 1.7814 1.4386 2.8347 1.8453 1.0213.3947 2.1813.6653 3.884.744 1.7067.08 2.2493.096 6.596.096s4.8893-.02 6.596-.096c1.7027-.08 2.864-.3493 3.884-.744 1.0507-.408 1.9453-.9573 2.8347-1.8453.888-.8894 1.4386-1.78 1.8453-2.8347.3947-1.02.6653-2.1813.744-3.884.08-1.7067.096-2.2493.096-6.596s-.02-4.8893-.096-6.596c-.08-1.7027-.3493-2.8653-.744-3.884-.408-1.052-.9573-1.9453-1.8453-2.8347-.8894-.8893-1.78-1.4386-2.8347-1.8453-1.02-.396-2.1813-.6653-3.884-.744C20.8893.016 20.3467 0 16 0Zm0 2.88c4.2707 0 4.78.0213 6.4667.0947 1.56.0733 2.4066.332 2.9693.5533.7493.2893 1.28.636 1.8427 1.1947.5586.56.9053 1.092 1.1946 1.8413.2187.5627.48 1.4093.5507 2.9693.076 1.688.0933 2.1947.0933 6.4667s-.02 4.78-.0986 6.4667c-.0814 1.56-.3414 2.4066-.5614 2.9693-.2986.7493-.6386 1.28-1.1986 1.8427-.5587.5586-1.0987.9053-1.84 1.1946-.56.2187-1.42.48-2.98.5507-1.6987.076-2.1987.0933-6.4787.0933-4.2813 0-4.7813-.02-6.4787-.0986C7.92 28.9373 7.06 28.6773 6.5 28.4573c-.7587-.2986-1.28-.6386-1.8387-1.1986-.5613-.5587-.92-1.0987-1.2-1.84-.22-.56-.4786-1.42-.56-2.98-.06-1.68-.0813-2.1987-.0813-6.4587 0-4.2613.0213-4.7813.0813-6.4813.0814-1.56.34-2.4187.56-2.9787.28-.76.6387-1.28 1.2-1.8413C5.22 4.12 5.7413 3.76 6.5 3.4813 7.06 3.26 7.9013 3 9.4613 2.92c1.7-.06 2.2-.08 6.4787-.08l.06.04Zm0 4.904c-4.54 0-8.216 3.68-8.216 8.216 0 4.54 3.68 8.216 8.216 8.216 4.54 0 8.216-3.68 8.216-8.216 0-4.54-3.68-8.216-8.216-8.216Zm0 13.5493c-2.9467 0-5.3333-2.3866-5.3333-5.3333 0-2.9467 2.3866-5.3333 5.3333-5.3333 2.9467 0 5.3333 2.3866 5.3333 5.3333 0 2.9467-2.3866 5.3333-5.3333 5.3333ZM26.4613 7.46c0 1.06-.8613 1.92-1.92 1.92-1.06 0-1.92-.8613-1.92-1.92s.8614-1.9187 1.92-1.9187c1.0574-.0013 1.92.86 1.92 1.9187Z" fill="#fff"/></g><defs><clipPath id="a"><path fill="#fff" d="M0 0h32v32H0z"/></clipPath></defs></svg>