<svg width="32" height="32" fill="none" xmlns="http://www.w3.org/2000/svg"><path d="M16 0c-4.3467 0-4.8893.02-6.596.0957C7.7.1754 6.54.4426 5.52.8373c-1.052.4066-1.9453.9528-2.8347 1.8393C1.796 3.563 1.2467 4.452.84 5.502.444 6.5187.1747 7.6749.096 9.3733.016 11.0745 0 11.6153 0 15.9478c0 4.3326.02 4.8734.096 6.5745.08 1.6972.348 2.8547.744 3.8714.408 1.0472.956 1.9389 1.8453 2.8254.8894.8851 1.7814 1.4339 2.8347 1.8393 1.0213.3934 2.1813.6631 3.884.7416 1.7067.0797 2.2493.0957 6.596.0957s4.8893-.02 6.596-.0957c1.7027-.0798 2.864-.3482 3.884-.7416 1.0507-.4067 1.9453-.9542 2.8347-1.8393.888-.8865 1.4386-1.7742 1.8453-2.8254.3947-1.0167.6653-2.1742.744-3.8714.08-1.7011.096-2.2419.096-6.5745 0-4.3325-.02-4.8733-.096-6.5745-.08-1.697-.3493-2.856-.744-3.8713-.408-1.0486-.9573-1.939-1.8453-2.8254-.8894-.8865-1.78-1.434-2.8347-1.8393C25.46.4426 24.2987.174 22.596.0957 20.8893.0159 20.3467 0 16 0Zm0 2.8706c4.2707 0 4.78.0213 6.4667.0944 1.56.073 2.4066.3309 2.9693.5515.7493.2884 1.28.634 1.8427 1.1908.5586.5582.9053 1.0884 1.1946 1.8353.2187.5608.48 1.4047.5507 2.9596.076 1.6825.0933 2.1876.0933 6.4456 0 4.2581-.02 4.7644-.0986 6.4456-.0814 1.555-.3414 2.3988-.5614 2.9597-.2986.7468-.6386 1.2758-1.1986 1.8367-.5587.5567-1.0987.9023-1.84 1.1907-.56.2179-1.42.4784-2.98.5489-1.6987.0757-2.1987.093-6.4787.093-4.2813 0-4.7813-.02-6.4787-.0983C7.92 28.8429 7.06 28.5838 6.5 28.3645c-.7587-.2976-1.28-.6365-1.8387-1.1947-.5613-.5569-.92-1.0951-1.2-1.834-.22-.5582-.4786-1.4153-.56-2.9703-.06-1.6745-.0813-2.1915-.0813-6.4376 0-4.2474.0213-4.7657.0813-6.4602.0814-1.555.34-2.4108.56-2.969.28-.7575.6387-1.2758 1.2-1.8353C5.22 4.1066 5.7413 3.7477 6.5 3.47c.56-.2206 1.4013-.4798 2.9613-.5595 1.7-.0598 2.2-.0798 6.4787-.0798l.06.04Zm0 4.888c-4.54 0-8.216 3.668-8.216 8.1892 0 4.5252 3.68 8.1892 8.216 8.1892 4.54 0 8.216-3.668 8.216-8.1892 0-4.5252-3.68-8.1892-8.216-8.1892Zm0 13.5051c-2.9467 0-5.3333-2.3788-5.3333-5.3159S13.0533 10.6319 16 10.6319c2.9467 0 5.3333 2.3788 5.3333 5.3159S18.9467 21.2637 16 21.2637Zm10.4613-13.828c0 1.0565-.8613 1.9137-1.92 1.9137-1.06 0-1.92-.8585-1.92-1.9137s.8614-1.9124 1.92-1.9124c1.0574-.0014 1.92.8572 1.92 1.9124Z" fill="#FFC700"/></svg>