<svg width="32" height="32" fill="none" xmlns="http://www.w3.org/2000/svg"><path d="M31.3307 8.2479a4.0212 4.0212 0 0 0-2.8294-2.848C26.0067 4.7266 16 4.7266 16 4.7266s-10.0067 0-12.5027.6733a4.0227 4.0227 0 0 0-2.828 2.848C0 10.7599 0 15.9999 0 15.9999s0 5.24.6693 7.752a4.0209 4.0209 0 0 0 2.8294 2.848C5.9933 27.2732 16 27.2732 16 27.2732s10.0067 0 12.5027-.6733a4.0203 4.0203 0 0 0 2.8293-2.848c.668-2.512.668-7.752.668-7.752s0-5.24-.6693-7.752Zm-18.604 12.5093v-9.5146l8.364 4.7573-8.364 4.7573Z" fill="#fff"/></svg>