<svg width="32" height="24" fill="none" xmlns="http://www.w3.org/2000/svg"><path d="M31.3307 4.4936a4.005 4.005 0 0 0-1.0339-1.7965 4.0238 4.0238 0 0 0-1.7955-1.0422C26.0067.9836 16 .9836 16 .9836s-10.0067 0-12.5027.6711a4.0256 4.0256 0 0 0-1.7945 1.0427 4.0064 4.0064 0 0 0-1.0335 1.796C0 6.9975 0 12.2204 0 12.2204s0 5.2229.6693 7.7267a4.0041 4.0041 0 0 0 1.0339 1.7964 4.0247 4.0247 0 0 0 1.7955 1.0423C5.9933 23.4568 16 23.4568 16 23.4568s10.0067 0 12.5027-.6711a4.023 4.023 0 0 0 1.7956-1.0421 4.0039 4.0039 0 0 0 1.0337-1.7966C32 17.4432 32 12.2203 32 12.2203s0-5.223-.6693-7.7267ZM12.7267 16.962V7.4785l8.364 4.7418-8.364 4.7418Z" fill="#FFC700"/></svg>