<svg width="140" height="42" fill="none" xmlns="http://www.w3.org/2000/svg"><path d="M11.394 25.1304v5.6213c0 2.8107-1.12 3.8242-2.9 3.8242-1.78 0-2.899-1.0135-2.899-3.8242V9.5008c0-2.8106 1.12-3.8794 2.9-3.8794 1.78 0 2.899 1.0688 2.899 3.8794v4.2166h5.29v-3.823C16.684 3.5975 13.835 0 8.342 0 2.848 0 0 3.5976 0 9.8943v20.464c0 6.2966 2.848 9.8954 8.342 9.8954 5.493 0 8.342-3.5988 8.342-9.8954v-5.2279h-5.29ZM32.503.4498l5.697 39.354h-5.646l-.967-7.14h-6.866l-.967 7.14h-5.137L24.314.4498h8.189Zm-4.425 6.971-2.645 19.9024h5.391L28.18 7.4196h-.101l-.001.0011Zm30.112 32.383h-5.697c-.305-1.0124-.509-1.6313-.509-4.8355v-6.1839c0-3.654-1.119-5.0036-3.662-5.0036h-1.933v16.023h-5.595V.4498h8.444c5.798 0 8.29 2.9798 8.29 9.0522v3.0914c0 4.0474-1.17 6.6338-3.662 7.9269 2.798 1.4048 3.713 4.3282 3.713 8.4332v6.0712c0 1.9121.052 3.3169.611 4.7791ZM49.085 6.0712h-2.696v12.0883h2.187c2.086 0 3.357-1.0113 3.357-4.1602v-3.8795c0-2.8107-.864-4.0486-2.848-4.0486ZM75.242.4498l5.697 39.354h-5.646l-.966-7.14H67.46l-.966 7.14h-5.138L67.053.4498h8.189Zm-4.425 6.971-2.645 19.9024h5.392L70.919 7.4196h-.102v.0011ZM86.115.4497h-5.646l5.493 39.354h8.342L99.797.4498H94.66L90.438 32.55h-.102L86.115.4498Zm27.098 0 5.697 39.354h-5.646l-.966-7.14h-6.867l-.967 7.14h-5.137l5.697-39.354h8.189Zm-4.425 6.971-2.645 19.9024h5.392L108.89 7.4196h-.102v.0011Zm25.464 32.383H140V.4498h-4.985v23.5554h-.102L129.267.4498h-7.019v39.354h5.036V11.2991h.101l6.867 28.5047Z" fill="#9C9C9C"/></svg>