<svg width="152" height="43" fill="none" xmlns="http://www.w3.org/2000/svg"><path fill-rule="evenodd" clip-rule="evenodd" d="M23.024 18.5781h2.717c2.808 0 4.325 3.6297 2.496 5.9814l-2.66 3.418c.2881 2.0272 1.259 3.86 2.719 5.1324 1.4614 1.2732 3.304 1.8927 5.161 1.7354 1.8571-.1573 3.5922-1.08 4.86-2.5844 1.2668-1.5037 1.9721-3.4792 1.975-5.5315a2.9606 2.9606 0 0 1 .1872-1.0405c.1239-.3299.3056-.6296.5346-.882.2291-.2523.5011-.4524.8004-.5887.2993-.1363.62-.2061.9438-.2055.6537.0003 1.2806.2865 1.7431.7958.4625.5093.7229 1.2001.7239 1.9209-.0002 2.8511-.8147 5.6298-2.328 7.9417-1.133 1.7275-2.6181 3.1375-4.3358 4.1164-1.7176.9789-3.6198 1.4994-5.5532 1.5196-1.9335.0202-3.8442-.4606-5.5783-1.4035-1.7341-.9429-3.2432-2.3216-4.4057-4.0252-1.1624 1.7036-2.6715 3.0823-4.4056 4.0252-1.7342.9429-3.6449 1.4237-5.5783 1.4035-1.9335-.0202-3.8356-.5407-5.5533-1.5196-1.7176-.9789-3.2027-2.3889-4.3358-4.1164C1.6374 32.3593.8225 29.5806.822 26.7294a2.9587 2.9587 0 0 1 .1873-1.0408c.124-.3299.3057-.6297.5349-.882.2292-.2524.5013-.4525.8007-.5887a2.2635 2.2635 0 0 1 .9441-.2052c.6537.0003 1.2806.2865 1.7431.7958.4625.5093.7229 1.2001.724 1.9209-.0028 2.0556.6994 4.0363 1.966 5.5448.9456 1.1261 2.16 1.9356 3.5038 2.3355 1.3439.3998 2.7627.3739 4.0939-.0748 1.3311-.4487 2.5205-1.302 3.4318-2.462.9113-1.1601 1.5076-2.5799 1.7204-4.0965l-2.662-3.418c-1.828-2.3506-.312-5.9792 2.5-5.9792l2.714-.0011Z" fill="#9C9C9C"/><path d="M34.5349 11.3344c.6476.0006 1.2889-.1395 1.8874-.4123.5984-.2728 1.1423-.6729 1.6005-1.1774.4582-.5046.8217-1.1037 1.0699-1.7633.2481-.6595.3759-1.3664.3762-2.0804-.0003-.714-.1281-1.421-.3762-2.0805-.2482-.6595-.6117-1.2587-1.0699-1.7633-.4582-.5045-1.0021-.9046-1.6005-1.1774C35.8238.607 35.1825.467 34.5349.4675c-.6475-.0004-1.2888.1398-1.8871.4126-.5984.2729-1.1421.673-1.6002 1.1775-.4581.5046-.8215 1.1037-1.0696 1.7631-.248.6595-.3759 1.3664-.3761 2.0803.0002.7139.1281 1.4207.3761 2.0802.2481.6594.6115 1.2585 1.0696 1.763.4581.5046 1.0018.9048 1.6002 1.1776.5983.2728 1.2396.413 1.8871.4126Zm-23.023 0c.6475.0004 1.2887-.1398 1.8871-.4126.5983-.2728 1.1421-.673 1.6001-1.1775.4581-.5046.8216-1.1037 1.0696-1.7631.2481-.6595.3759-1.3663.3762-2.0802-.0003-.714-.1281-1.4208-.3762-2.0802-.248-.6595-.6115-1.2586-1.0696-1.7632-.458-.5045-1.0018-.9046-1.6001-1.1775-.5984-.2728-1.2396-.413-1.8871-.4126C10.8643.467 10.223.607 9.6245.8798s-1.1423.6729-1.6005 1.1774c-.4582.5046-.8218 1.1038-1.0699 1.7633-.2481.6595-.376 1.3665-.3762 2.0805.0002.714.128 1.421.3762 2.0804.2481.6596.6117 1.2587 1.0699 1.7633.4582.5045 1.002.9046 1.6005 1.1774.5985.2728 1.2398.4129 1.8874.4123Zm67.933-9.5394c.76 0 1.384.2393 1.872.7178.488.4785.732 1.107.732 1.8854V31.229c0 .8081-.23 1.4509-.692 1.9295-.46.4785-1.071.7177-1.83.7177-.76 0-1.37-.2392-1.832-.7166-.461-.4797-.692-1.1224-.692-1.9295v-1.1224c-.597 1.226-1.465 2.183-2.605 2.871-1.112.688-2.387 1.032-3.825 1.032-1.71 0-3.242-.4785-4.598-1.4355-1.33-.957-2.374-2.3033-3.134-4.0387-.733-1.7641-1.099-3.7829-1.099-6.0564s.366-4.2625 1.099-5.9682c.76-1.7045 1.804-3.021 3.134-3.9482 1.329-.9273 2.862-1.3915 4.598-1.3915 1.438 0 2.713.3297 3.826.9879 1.0845.6282 1.9762 1.5961 2.563 2.7818V4.3078c0-.7476.217-1.3463.651-1.795.462-.4785 1.072-.7178 1.832-.7178Zm-7.529 27.864c1.628 0 2.876-.613 3.744-1.8402.895-1.226 1.343-2.9769 1.343-5.2493 0-2.2735-.448-4.0089-1.343-5.2041-.868-1.2271-2.102-1.8413-3.703-1.8413-1.628 0-2.89.5987-3.785 1.7961-.895 1.1963-1.343 2.9163-1.343 5.16 0 2.2735.448 4.0376 1.343 5.2945.895 1.257 2.143 1.8843 3.744 1.8843Zm24.441 4.3518c-2.034 0-3.825-.463-5.371-1.3903-1.52-.9272-2.7-2.258-3.541-3.9935-.841-1.7354-1.262-3.7542-1.262-6.0575 0-2.3032.42-4.3077 1.262-6.0123.841-1.7354 2.021-3.0662 3.54-3.9934 1.547-.9273 3.338-1.3915 5.372-1.3915 2.035 0 3.8121.4631 5.3311 1.3915 1.523.9004 2.759 2.2942 3.541 3.9934.841 1.7046 1.262 3.7091 1.262 6.0123 0 2.3044-.421 4.3221-1.262 6.0575-.782 1.6992-2.018 3.0931-3.541 3.9935-1.519.9262-3.2971 1.3903-5.3311 1.3903Zm-.04-4.3518c1.655 0 2.916-.5987 3.7841-1.795.869-1.1962 1.303-2.9614 1.303-5.2945 0-2.3032-.434-4.053-1.303-5.2493-.8681-1.2271-2.1161-1.8402-3.7441-1.8402-1.627 0-2.89.6131-3.784 1.8402-.868 1.1963-1.303 2.9461-1.303 5.2493 0 2.3331.434 4.0983 1.303 5.2945.868 1.1963 2.116 1.795 3.744 1.795Zm31.2211-18.3963c.76 0 1.37.2393 1.831.7167.462.4796.692 1.1224.692 1.9295v17.7237c0 3.44-.868 6.0421-2.604 7.8084-1.737 1.7641-4.3 2.6461-7.692 2.6461-2.957 0-5.426-.6119-7.406-1.8391-1.004-.6582-1.506-1.4509-1.506-2.3782 0-.6582.136-1.1808.407-1.57.298-.3892.678-.5844 1.139-.5844.245 0 .543.0606.896.1808.352.1489.719.3143 1.098.4929.85.3986 1.719.7431 2.605 1.032.787.2392 1.682.3594 2.686.3594 3.554 0 5.331-1.914 5.331-5.7444v-2.871c-.597 1.2271-1.465 2.183-2.604 2.8721-1.14.6583-2.442.9868-3.907.9868-1.737 0-3.283-.4487-4.64-1.3451-1.329-.9283-2.373-2.2139-3.133-3.859-.76-1.6461-1.14-3.5447-1.14-5.6991 0-2.1533.367-4.053 1.099-5.6981.76-1.6759 1.818-2.9615 3.174-3.8589 1.357-.9273 2.903-1.3915 4.64-1.3915 1.465 0 2.767.344 3.907 1.032 1.11.6265 2.019 1.6132 2.604 2.827v-1.1665c0-.7773.231-1.4058.692-1.8854.461-.4774 1.072-.7167 1.831-.7167Zm-7.691 17.4095c1.628 0 2.889-.5843 3.784-1.7497.923-1.1677 1.384-2.7675 1.384-4.8017 0-2.064-.461-3.6793-1.384-4.8458-.895-1.1665-2.156-1.7498-3.784-1.7498-1.601 0-2.863.5833-3.785 1.7498-.922 1.1665-1.384 2.7818-1.384 4.8458 0 2.0342.462 3.634 1.384 4.8017.922 1.1665 2.184 1.7497 3.785 1.7497Zm22.686 5.3386c-2.957 0-5.344-.6428-7.162-1.9294-.868-.5679-1.302-1.376-1.302-2.4224 0-.5987.149-1.0772.447-1.4355.299-.3892.665-.5844 1.099-.5844.461 0 1.099.2404 1.913.7189.868.4487 1.655.7927 2.36 1.032.733.2392 1.655.3583 2.767.3583 1.14 0 2.022-.2095 2.646-.6284.651-.419.976-1.0012.976-1.7498 0-.5072-.135-.9118-.407-1.2106-.244-.2999-.705-.5689-1.383-.8082-.652-.269-1.655-.5678-3.012-.8975-2.414-.538-4.151-1.301-5.209-2.2878-1.031-.9868-1.546-2.3485-1.546-4.0828 0-1.3165.352-2.4984 1.058-3.5458.705-1.0762 1.668-1.8987 2.889-2.4676 1.248-.5976 2.659-.8975 4.232-.8975 1.14 0 2.239.1654 3.297.494 1.009.2759 1.971.7301 2.849 1.3451.868.5987 1.302 1.3914 1.302 2.3793 0 .5976-.149 1.107-.448 1.5249-.298.3892-.665.5843-1.099.5843-.298 0-.597-.0606-.895-.1797-.357-.2004-.71-.4099-1.058-.6284-.787-.4488-1.465-.7773-2.035-.9868-.57-.2393-1.275-.3595-2.116-.3595-1.004 0-1.804.225-2.401.6726-.57.4487-.855 1.0629-.855 1.8402 0 .7475.299 1.3164.896 1.7045.597.3892 1.75.7784 3.459 1.1677 1.818.4189 3.242.8963 4.273 1.4355 1.031.538 1.763 1.2117 2.197 2.0188.462.8082.692 1.8402.692 3.096 0 2.0342-.773 3.6649-2.319 4.891-1.52 1.226-3.555 1.839-6.105 1.839Z" fill="#9C9C9C"/></svg>