<svg width="164" height="43" fill="none" xmlns="http://www.w3.org/2000/svg"><g clip-path="url(#a)"><path d="M2.688 34.0288c-.812 0-1.47-.2851-1.974-.8554C.238 32.6031 0 31.8585 0 30.9396V3.1367C0 2.218.224 1.505.672.9981 1.148.491 1.792.2376 2.604.2376h14.742c1.708 0 2.562.8238 2.562 2.4714 0 1.6159-.854 2.4238-2.562 2.4238H5.334v9.1251h11.172c1.708 0 2.562.8238 2.562 2.4714 0 1.6159-.854 2.4238-2.562 2.4238H5.334v11.7865c0 .9189-.238 1.6635-.714 2.2338s-1.12.8554-1.932.8554Zm24.925 0c-.756 0-1.386-.2376-1.89-.7129-.476-.5069-.714-1.2198-.714-2.1386V2.8041c0-.9189.238-1.616.714-2.0912C26.227.2376 26.857 0 27.613 0s1.386.2376 1.89.7129c.504.4753.756 1.1723.756 2.0911v28.3733c0 .9188-.252 1.6317-.756 2.1386-.504.4753-1.134.7129-1.89.7129Zm24.314-6.6536c.476 0 .854.2059 1.134.6178.308.4119.462.9664.462 1.6634 0 .9822-.518 1.806-1.554 2.4714-.952.602-2.03 1.0931-3.234 1.4733-1.204.3485-2.352.5228-3.444.5228-3.304 0-5.922-1.0773-7.854-3.2318-1.932-2.1545-2.898-5.1012-2.898-8.8399 0-2.3763.42-4.4833 1.26-6.321.84-1.8377 2.016-3.2635 3.528-4.2774 1.54-1.0139 3.276-1.5208 5.208-1.5208 1.848 0 3.458.4594 4.83 1.3783 1.372.9188 2.436 2.2179 3.192 3.8971.756 1.6793 1.134 3.6595 1.134 5.9408 0 1.3624-.532 2.0436-1.596 2.0436h-12.39c.168 2.1863.714 3.8021 1.638 4.8477.924 1.0139 2.268 1.5209 4.032 1.5209.896 0 1.68-.1268 2.352-.3802.7-.2535 1.484-.602 2.352-1.0456.84-.507 1.456-.7604 1.848-.7604ZM44.66 14.1153c-1.428 0-2.576.507-3.444 1.5209-.84 1.0139-1.344 2.4713-1.512 4.3724h9.492c-.056-1.9328-.476-3.3902-1.26-4.3724-.784-1.0139-1.876-1.5209-3.276-1.5209Zm30.723 15.256c.504.5703.756 1.2198.756 1.9485 0 .6971-.238 1.3308-.714 1.9011-.476.5386-1.036.8079-1.68.8079-.7 0-1.302-.3326-1.806-.998l-5.922-7.4141-5.922 7.4141c-.532.6337-1.134.9505-1.806.9505-.616 0-1.162-.2693-1.638-.8079-.476-.5387-.714-1.1565-.714-1.8536 0-.7287.252-1.3782.756-1.9485l6.132-7.5567-5.796-7.129c-.504-.5703-.756-1.2198-.756-1.9485 0-.7288.238-1.3466.714-1.8536.476-.5386 1.022-.8079 1.638-.8079.672 0 1.274.3168 1.806.9505l5.586 6.9388 5.586-6.9388c.532-.6337 1.134-.9505 1.806-.9505.644 0 1.19.2693 1.638.8079.476.507.714 1.1248.714 1.8536 0 .7287-.252 1.3782-.756 1.9485l-5.796 7.129 6.174 7.5567Zm23.236-12.9272c1.708.5386 3.024 1.5208 3.948 2.9466.952 1.4258 1.428 3.1685 1.428 5.2279 0 2.8516-.91 5.0853-2.73 6.7012-1.792 1.6159-4.27 2.4239-7.434 2.4239H82.995c-.812 0-1.456-.2535-1.932-.7604-.448-.507-.672-1.2199-.672-2.1387V3.1367c0-.9188.224-1.6317.672-2.1386.476-.507 1.12-.7605 1.932-.7605H93.41c3.08 0 5.488.7763 7.224 2.3288 1.764 1.5209 2.646 3.6596 2.646 6.416 0 1.7744-.42 3.3111-1.26 4.6101-.812 1.2991-1.946 2.2496-3.402 2.8516h.001Zm-12.936-2.0912h6.846c3.724 0 5.586-1.5683 5.586-4.705 0-1.5843-.462-2.7566-1.386-3.517-.924-.7604-2.324-1.1406-4.2-1.1406h-6.846v9.3626Zm7.56 14.6382c1.96 0 3.388-.3961 4.284-1.1882.896-.7921 1.344-2.0278 1.344-3.7071 0-1.6792-.462-2.9307-1.386-3.7545-.896-.8238-2.31-1.2357-4.242-1.2357h-7.56v9.8855h7.56Zm17.96 5.0377c-.756 0-1.386-.2376-1.89-.7129-.476-.5069-.714-1.2198-.714-2.1386V2.8041c0-.9189.238-1.616.714-2.0912.504-.4753 1.134-.7129 1.89-.7129s1.386.2376 1.89.7129c.504.4753.756 1.1723.756 2.0911v28.3733c0 .9188-.252 1.6317-.756 2.1386-.504.4753-1.134.7129-1.89.7129Zm17.426.0951c-2.1 0-3.948-.4911-5.544-1.4733-1.568-.9822-2.786-2.3922-3.654-4.2299-.868-1.8376-1.302-3.9763-1.302-6.416s.434-4.5625 1.302-6.3685c.868-1.8377 2.086-3.2477 3.654-4.2299 1.596-.9822 3.444-1.4733 5.544-1.4733 2.1 0 3.934.4911 5.502 1.4733 1.572.954 2.847 2.4303 3.654 4.2299.868 1.806 1.302 3.9288 1.302 6.3685s-.434 4.5784-1.302 6.416c-.807 1.7996-2.082 3.2759-3.654 4.2299-1.568.9822-3.402 1.4733-5.502 1.4733Zm-.042-4.6101c1.708 0 3.01-.6336 3.906-1.901.896-1.2674 1.344-3.1367 1.344-5.6081 0-2.4397-.448-4.2932-1.344-5.5606-.896-1.299-2.184-1.9486-3.864-1.9486-1.68 0-2.982.6496-3.906 1.9486-.896 1.2674-1.344 3.1209-1.344 5.5606 0 2.4714.448 4.3407 1.344 5.6081.896 1.2674 2.184 1.901 3.864 1.901Zm32.222-19.4857c.784 0 1.414.2534 1.89.7604.476.5069.714 1.1881.714 2.0436V31.605c0 3.6437-.896 6.4002-2.688 8.2696-1.792 1.8693-4.438 2.804-7.938 2.804-3.052 0-5.6-.6495-7.644-1.9485-1.036-.6971-1.554-1.5367-1.554-2.5189 0-.6971.14-1.2516.42-1.6635.308-.4119.7-.6178 1.176-.6178.252 0 .56.0634.924.1901.364.1584.742.3327 1.134.5228 1.008.4753 1.904.8396 2.688 1.0931.812.2535 1.736.3802 2.772.3802 3.668 0 5.502-2.0278 5.502-6.0834v-3.0416c-.616 1.299-1.512 2.3129-2.688 3.0416-1.176.6971-2.52 1.0456-4.032 1.0456-1.792 0-3.388-.4752-4.788-1.4258-1.372-.9822-2.45-2.3446-3.234-4.0872-.784-1.7427-1.176-3.7546-1.176-6.0359 0-2.2812.378-4.2932 1.134-6.0358.784-1.7743 1.876-3.1368 3.276-4.0873 1.4-.9822 2.996-1.4733 4.788-1.4733 1.512 0 2.856.3644 4.032 1.0931 1.146.6633 2.084 1.7084 2.688 2.9942v-1.2357c0-.8238.238-1.4892.714-1.9961.476-.507 1.106-.7604 1.89-.7604Zm-7.938 18.4402c1.68 0 2.982-.6179 3.906-1.8536.952-1.2356 1.428-2.9308 1.428-5.0853 0-2.1862-.476-3.8971-1.428-5.1328-.924-1.2357-2.226-1.8535-3.906-1.8535-1.652 0-2.954.6178-3.906 1.8535s-1.428 2.9466-1.428 5.1328c0 2.1545.476 3.8497 1.428 5.0853.952 1.2357 2.254 1.8536 3.906 1.8536Z" fill="#9C9C9C"/></g><defs><clipPath id="a"><path fill="#fff" d="M0 0h164v43H0z"/></clipPath></defs></svg>