<svg width="139" height="56" fill="none" xmlns="http://www.w3.org/2000/svg"><g clip-path="url(#a)"><path d="M24.912 12.0781 20.31 43.7718h-6.612l1.68-11.4441H8.256L6.61 43.7718H0l4.639-31.6937h6.575L9.242 25.4598h7.122l1.974-13.3817h6.574Zm13.561 31.6937.22-6.9104h-6.1l-1.79 6.9104h-6.977l9.388-31.6937h12.053l.147 31.6937h-6.941Zm-1.497-23.9904-2.885 11.181h4.785l.401-11.1798-2.301-.0012Zm36.807-7.7033L69.18 43.7718h-6.612l-4.601-17.342-2.484 17.3432H48.87l4.639-31.6949h6.794l4.53 16.1997 2.373-16.1997h6.577Zm15.425 0c3.19 0 5.467.9688 6.83 2.9053.999 1.4672 1.497 3.3017 1.497 5.5025 0 .793-.06 1.6285-.181 2.5088l-1.425 9.8168c-.487 3.3152-1.681 5.9719-3.58 7.9677-1.9 1.9958-4.359 2.9926-7.38 2.9926H74.34l4.64-31.6937h10.228Zm-2.302 6.8678h-2.374L81.939 36.904h3.47c1.144 0 2.033-.3674 2.666-1.0998.658-.7639 1.108-1.9959 1.35-3.6972l1.061-7.2195c.092-.5824.141-1.1715.146-1.7617 0-2.7888-1.241-4.1799-3.726-4.1799Zm30.206 24.8259H98.775l4.641-31.6937h18.337l-1.023 6.8678h-11.762l-.84 5.9427h9.716l-1.022 6.8656h-9.717l-.73 5.1509h11.762l-1.025 6.8667Zm20.865 0H121.32l4.64-31.6937h6.575l-3.616 24.827H139l-1.023 6.8667Zm-64.506 5.6404h63.543L135.029 56H71.486l1.985-6.5878ZM6.95 0h69.5l-1.986 6.5878h-69.5L6.95 0Z" fill="#9C9C9C"/></g><defs><clipPath id="a"><path fill="#fff" d="M0 0h139v56H0z"/></clipPath></defs></svg>