<svg width="208" height="46" fill="none" xmlns="http://www.w3.org/2000/svg"><g clip-path="url(#a)"><mask id="b" style="mask-type:luminance" maskUnits="userSpaceOnUse" x="0" y="0" width="208" height="46"><path d="M0 0h208v46H0V0Z" fill="#fff"/></mask><g mask="url(#b)"><path fill-rule="evenodd" clip-rule="evenodd" d="M13.935 40.5283a.7933.7933 0 0 1-.3824-.1038.9013.9013 0 0 1-.3026-.2821c-.2281-.3403-.3822-.7356-.45-1.1545a17.4125 17.4125 0 0 1-.25-1.6156 21.8937 21.8937 0 0 1-.106-2.1059 142.009 142.009 0 0 1 .014-4.6382c.018-.9491.026-1.6896.026-2.2237v-17.673c0-.8706.005-1.5325.014-1.987.009-.4543.04-.9682.091-1.5415.03-.4263.096-.8482.199-1.26.1-.3175.233-.6204.395-.9042.15-.2974.368-.543.633-.7114.308-.1727.625-.3253.949-.46a5.7705 5.7705 0 0 1 1.291-.3702 34.0803 34.0803 0 0 1 1.728-.2378V1.6268l-.45-.5049H1.412l-.422.505v1.3934c2.672.1784 4.166 1.0288 4.482 2.5502.184 1.2846.272 2.5838.264 3.8842V36.524a30.4709 30.4709 0 0 1-.159 4.2107c-.073.2176-.18.4173-.316.5923a10.709 10.709 0 0 1-.645.7854 9.2277 9.2277 0 0 0-.514.6081v1.0378c13.587 0 21.997.0987 25.23.2973l1.135-4.2993-.712-.5643c-5.25.7416-10.53 1.187-15.819 1.3351l-.001.0011Zm25.256-12.3931a.653.653 0 0 1-.158.0292c-.263 0-.395-.1077-.395-.3253.001-.9829.067-1.9646.198-2.9362.148-1.0591.395-2.098.738-3.0977.3305-1.0136.7838-1.9714 1.347-2.8464.5969-.8901 1.3721-1.6103 2.2629-2.1022.8908-.4919 1.8723-.7419 2.8651-.7296.7164-.0446 1.4309.1206 2.0733.4794.6424.3588 1.1905.8988 1.5907 1.567.8311 1.3821 1.264 3.0172 1.24 4.6842-.0035.3056-.0901.6027-.248.8516-.158.249-.3798.438-.636.5419a39.953 39.953 0 0 1-4.416 1.6907 273.8853 273.8853 0 0 0-6.3 2.1654.6685.6685 0 0 0-.162.028Zm15.66 9.2505c-3.165 2.1542-5.898 3.2313-8.198 3.2313-1.5582.0379-3.0881-.4699-4.377-1.453-1.199-.9027-2.1524-2.1595-2.755-3.6317-.5933-1.4764-.8946-3.0794-.883-4.6988 11.495-4.0121 17.295-6.0192 17.4-6.0192.4565-.1048.8644-.3897 1.1497-.8031.2853-.4133.4291-.9277.4053-1.4498.0313-1.4555-.2729-2.8954-.883-4.1804-.5572-1.1493-1.3818-2.1074-2.386-2.7723-1.0132-.6673-2.1112-1.1572-3.256-1.453a14.8982 14.8982 0 0 0-3.785-.46c-2.284-.0397-4.5491.4711-6.642 1.4978-1.8454.8944-3.4759 2.2661-4.758 4.0032-1.2088 1.6796-2.1417 3.5871-2.755 5.6333-.636 2.1054-.957 4.3145-.95 6.5376 0 4.5663 1.1 7.986 3.296 10.2591 1.986 2.0756 4.79 3.1123 8.41 3.1123 2.0756-.0239 4.1186-.5816 5.972-1.6302 2.2319-1.2472 4.3699-2.6955 6.393-4.3307l-.577-1.1534-.821-.239ZM90.36 6.1226c-.7064-2.0703-2.0937-3.7577-3.876-4.7145C84.2762.366 81.8914-.1196 79.498-.0145c-1.7466-.0112-3.4874.2278-5.18.7113-1.5745.4498-3.0776 1.17-4.456 2.135-1.3502.955-2.4543 2.2894-3.203 3.8708-.8127 1.7298-1.2211 3.6626-1.187 5.6176-.0009 1.3995.3022 2.7781.883 4.0166.5548 1.2258 1.3056 2.3267 2.215 3.2481a27.4875 27.4875 0 0 0 3.11 2.6534 35.5834 35.5834 0 0 0 3.402 2.2528 57.4774 57.4774 0 0 1 3.243 2.0173c.88.5588 1.706 1.2196 2.465 1.9713 1.95 2.0363 2.926 3.9728 2.926 5.8117-.0036.9768-.1856 1.9423-.5347 2.8371-.3492.8948-.8581 1.6998-1.4953 2.3654-.6326.7305-1.3914 1.3085-2.23 1.6986-.8386.3901-1.7393.584-2.647.57-1.0614.0342-2.1157-.2046-3.0821-.6979-.9665-.4934-1.8196-1.2283-2.4939-2.1485-1.3993-1.7978-2.1634-4.1083-2.148-6.495l-1.027-.4151-5.246 6.6116c1.1989 1.9468 2.8244 3.5144 4.72 4.5518 1.9274 1.0609 4.0482 1.6044 6.195 1.5876 1.9588-.0111 3.9051-.3515 5.774-1.0098 1.8795-.6348 3.6717-1.558 5.326-2.7432 1.5726-1.1267 2.9081-2.6235 3.914-4.3868.9859-1.6767 1.5129-3.6404 1.516-5.649.0079-1.078-.1616-2.1483-.5-3.1572-.3131-.9369-.7485-1.8164-1.292-2.6097-.6399-.8806-1.3802-1.663-2.202-2.3269a28.158 28.158 0 0 0-2.808-2.0924 93.591 93.591 0 0 0-3.532-2.1497 44.0624 44.0624 0 0 1-2.452-1.4383 29.1937 29.1937 0 0 1-2.218-1.6089c-.7355-.5657-1.4077-1.2287-2.002-1.9746-.5223-.6962-.949-1.4759-1.266-2.3135-.3519-.9019-.5314-1.8765-.527-2.861-.0162-.8051.1117-1.6058.3762-2.3545.2646-.7487.6603-1.4302 1.1638-2.0042.5321-.5968 1.1689-1.063 1.87-1.369.7012-.3062 1.4513-.4455 2.203-.4093.9311-.0452 1.8595.1414 2.7187.5462.8593.4048 1.6281 1.0179 2.2513 1.7953 1.2487 1.5856 2.0352 3.562 2.254 5.6636l.923.3253 5.142-4.5068Zm25.638 11.3709c-.471-.9254-1.153-1.693-1.977-2.2237-.815-.5226-1.695-.9071-2.61-1.141a11.9866 11.9866 0 0 0-2.992-.3557c-1.919-.0302-3.827.3366-5.629 1.0827-1.546.6298-2.9622 1.6029-4.165 2.861-1.1178 1.215-2.0448 2.6328-2.742 4.1939-.7167 1.5704-1.2443 3.2406-1.569 4.9668a28.958 28.958 0 0 0-.474 5.3069c-.006 1.5146.185 3.0225.566 4.4743.37 1.4058.945 2.7331 1.7 3.9291.7961 1.2336 1.8639 2.2143 3.099 2.8464 1.418.727 2.963 1.0871 4.521 1.0524 4.939 0 9.579-2.4414 13.92-7.323l-.527-.8605-.659-.1773c-3.216 2.7869-6.187 4.1804-8.911 4.1804-1.02.0184-2.028-.2411-2.939-.7562-.826-.4599-1.544-1.1295-2.099-1.9556-.551-.8492-.999-1.7765-1.332-2.7577a16.2208 16.2208 0 0 1-.751-3.0383c-.14-.9806-.21-1.9724-.211-2.9653.006-1.2622.103-2.521.29-3.7653.207-1.3856.516-2.7487.923-4.0771.37-1.2983 1.012-2.4779 1.872-3.4399.379-.4306.83-.7717 1.328-1.0033.499-.2316 1.033-.349 1.572-.3453.72-.0446 1.438.1372 2.071.5249.633.3877 1.158.9659 1.514 1.6696.815 1.6478 1.216 3.5131 1.16 5.3966l.923.4151 4.983-3.3198c-.041-1.1918-.334-2.3555-.855-3.3951Zm9.663 8.8208c.134-1.1646.368-2.3112.699-3.4242.303-1.0827.733-2.1137 1.278-3.0685.524-.8845 1.223-1.6203 2.044-2.1497.885-.573 1.892-.8651 2.913-.8448 1.108-.0316 2.201.2922 3.15.9335.882.6163 1.591 1.5005 2.043 2.5502.477 1.0849.822 2.236 1.027 3.4242.217 1.279.324 2.5804.317 3.8842 0 1.1859-.009 2.1743-.027 2.9641a40.3937 40.3937 0 0 1-.184 2.8476 19.0364 19.0364 0 0 1-.435 2.7566 15.1779 15.1779 0 0 1-.804 2.3135c-.302.7352-.738 1.3914-1.279 1.9263-.559.5122-1.192.9133-1.872 1.1859-.824.3309-1.695.4917-2.57.4746-.964.0132-1.908-.3081-2.703-.92-.775-.5828-1.42-1.3588-1.884-2.2674-.487-.978-.868-2.018-1.134-3.0977a22.7647 22.7647 0 0 1-.607-3.2481 27.5986 27.5986 0 0 1-.158-2.861 30.499 30.499 0 0 1 .186-3.3793Zm-3.269 15.3292c1.915 1.9567 4.956 2.9351 9.122 2.9351 1.54.0112 3.076-.1874 4.574-.5935 1.409-.3931 2.752-1.0387 3.978-1.9119 1.232-.8721 2.309-1.9932 3.177-3.3063.949-1.489 1.654-3.1557 2.083-4.922.532-2.1421.789-4.358.765-6.5814.051-1.7901-.245-3.5713-.869-5.22-.624-1.6487-1.56-3.1255-2.743-4.3278-2.198-2.2125-5.388-3.3199-9.57-3.3199-4.183 0-7.628 1.453-10.335 4.3588-1.329 1.4093-2.378 3.1176-3.077 5.0132-.7 1.8956-1.035 3.9356-.983 5.9864 0 5.2979 1.291 9.2606 3.875 11.8893h.003Zm41.258-23.4824c1.406 0 2.408.3164 3.006.9492.557.7629.909 1.6896 1.014 2.6702.221 1.1556.358 2.3314.409 3.5128.035 1.0379.053 2.3775.053 4.0178a567.0455 567.0455 0 0 1-.039 6.3895c-.009.6417-.005 1.3979.012 2.2686.005.6484.04 1.2969.106 1.9409.053.4264.123.8909.211 1.3935.061.4218.186.8269.369 1.2005.158.2973.352.5677.578.8022.791.8052 1.832 1.2305 2.899 1.1848 1.319 0 2.83-.7518 4.535-2.2529a52.4571 52.4571 0 0 0 4.06-4.241l-.606-1.0098h-.633c-1.031.9281-2.292 1.477-3.611 1.5719-.279.018-.559-.028-.822-.135-.263-.107-.504-.273-.708-.4877-.182-.1614-.338-.3564-.462-.5767a4.6855 4.6855 0 0 1-.276-1.2162c-.101-.85-.145-1.7073-.132-2.5647 0-.6519.031-1.7054.092-3.1572.049-1.0322.08-2.0653.093-3.0988v-1.7795c.017-1.9174.013-3.2458-.013-3.9885a31.516 31.516 0 0 0-.304-3.0237c-.066-.9437-.347-1.8526-.817-2.6388-.464-.5648-1.019-1.0272-1.635-1.3632-.837-.4542-1.76-.6733-2.689-.6383-3.093 0-6.679 1.4237-10.756 4.2701l-.633-.267c-.034-1.0902-.35-2.1458-.909-3.0383-.519-.7629-1.411-1.1421-2.676-1.1421-.758.0107-1.51.1557-2.228.4297-.835.3141-1.632.7427-2.374 1.2745-.8.5644-1.494 1.0883-2.083 1.5719-.589.4835-1.27 1.0714-2.043 1.7637l.975 1.4529c.179-.1301.36-.2584.541-.3848.307-.2177.575-.3949.804-.5341.228-.138.501-.3006.817-.4891.283-.1728.579-.3175.884-.4331.233-.0898.477-.1402.724-.1481.305-.0079.606.0785.87.2524.268.1986.47.4903.578.8303.132.359.246.7236.342 1.0961.108.5015.17 1.0132.185 1.5281.036.6732.057 1.2162.064 1.6302.008.414.012 1.0367.013 1.8681v.5048c0 1.9365-.132 7.866-.395 17.7886l.659.4151 5.932-1.9275c-.176-.8493-.308-3.5274-.396-8.0332-.087-4.4074-.13-8.8159-.128-13.2244 3.058-1.858 5.237-2.7869 6.538-2.7869l.005.0022Zm25.573 10.1088a.6282.6282 0 0 1-.158.0314c-.263 0-.395-.1088-.396-.3254.001-.9839.067-1.9645.199-2.9361.148-1.0591.395-2.0981.737-3.0988.331-1.0132.783-1.9713 1.345-2.8464.597-.8905 1.372-1.6108 2.263-2.1027.891-.492 1.872-.7418 2.865-.7291.716-.0447 1.431.1204 2.073.4792.643.3588 1.191.8989 1.591 1.5672.831 1.3819 1.264 3.0172 1.239 4.6841-.004.3054-.09.6022-.248.851-.158.2489-.379.4381-.635.5425a40.0322 40.0322 0 0 1-4.415 1.6908 272.5455 272.5455 0 0 0-6.301 2.1654.7065.7065 0 0 0-.158.028l-.001-.0011Zm15.66 9.2516c-3.165 2.1553-5.898 3.2323-8.199 3.2312-1.558.0377-3.088-.4697-4.377-1.4518-1.199-.903-2.152-2.1598-2.754-3.6317-.594-1.477-.895-3.0808-.884-4.701 11.495-4.011 17.295-6.017 17.401-6.017.456-.1053.864-.3905 1.15-.804.285-.4134.429-.9279.405-1.4501.031-1.4554-.273-2.8953-.883-4.1803-.557-1.1493-1.382-2.1075-2.386-2.7724-1.013-.6669-2.111-1.1569-3.256-1.4529a14.8891 14.8891 0 0 0-3.786-.46c-2.283-.0395-4.548.4712-6.64 1.4978-1.845.8942-3.476 2.266-4.758 4.0031-1.209 1.6794-2.142 3.5869-2.755 5.6333-.636 2.1054-.957 4.3146-.949 6.5376 0 4.5664 1.098 7.985 3.295 10.2592 1.986 2.0756 4.789 3.1123 8.41 3.1123 2.076-.024 4.119-.5817 5.972-1.6302 2.232-1.2474 4.37-2.6954 6.393-4.3296l-.577-1.1545-.822-.239Z" fill="#9C9C9C"/></g></g><defs><clipPath id="a"><path fill="#fff" d="M0 0h208v46H0z"/></clipPath></defs></svg>