<svg width="148" height="40" fill="none" xmlns="http://www.w3.org/2000/svg"><g clip-path="url(#a)"><path d="M48.624 39.4667V0h-8.976L20.88 30.4533l-3.168-4.4266c5.664-.96 8.832-6.5067 8.832-12.4267 0-5.6533-2.784-10.4-6.528-12.2133C18.144.48 15.36 0 11.664 0H0v39.4667h8.688V26.72h.096l8.208 12.7467h9.168l3.12-5.7067h10.272v5.7067h9.072ZM8.688 19.84V8.8533h3.456c3.408 0 5.712 1.92 5.712 5.3334 0 3.6266-2.16 5.6533-5.76 5.6533H8.688Zm30.864 5.92H33.6l5.856-10.9333h.096V25.76ZM85.03 39.4667V0h-8.688l.384 24.96L62.902 0h-7.824v39.4667h8.688l-.24-24.1067 13.632 24.1067h7.872Zm26.198 0v-8.8534h-11.04V23.84h10.704v-8.8533h-10.704V8.8533h11.04V0H91.5v39.4667h19.728Zm36.062 0L134.762 19.68 146.522 0h-9.504l-10.032 17.76h-.096V0h-9.072v39.4667h9.072V22.4h.096l9.696 17.0667h10.608Z" fill="#9C9C9C"/></g><defs><clipPath id="a"><path fill="#fff" d="M0 0h148v40H0z"/></clipPath></defs></svg>