<svg width="200" height="54" fill="none" xmlns="http://www.w3.org/2000/svg"><g clip-path="url(#a)" fill="#9C9C9C"><path d="M54.381 48.5051c-3.32 0-5.865-.6259-7.636-1.8778-1.74-1.2872-2.609-3.1662-2.609-5.6359 0-1.2519.38-2.279 1.138-3.0791.791-.8342 1.803-1.2519 3.036-1.2519.727.0353 1.28.2425 1.66.626.38.3482.57.6788.57.9918 0 .0342-.159.1565-.475.3648-.316.2094-.6.5224-.854.9389-.253.4188-.38.9919-.38 1.7225 0 1.6354.444 2.905 1.329 3.8098.917.8695 2.324 1.3037 4.221 1.3037 1.297 0 2.435-.2777 3.416-.8343.98-.5565 1.723-1.2871 2.229-2.1919.537-.939.806-1.9132.806-2.9226 0-1.252-.332-2.3298-.996-3.2345-.645-.9165-1.4515-1.6797-2.371-2.2438-.95-.6259-2.246-1.3401-3.89-2.1401-1.897-.939-3.43-1.7909-4.6-2.5568-1.1757-.7702-2.1938-1.8006-2.99-3.0262-.821-1.2872-1.232-2.8697-1.232-4.7487 0-3.0262.932-5.2876 2.798-6.783 1.898-1.4966 4.38-2.2438 7.447-2.2438 2.403 0 4.49.5565 6.261 1.6696 1.803 1.1131 2.704 2.7485 2.704 4.9041 0 1.253-.396 2.2966-1.186 3.132-.759.8001-1.755 1.2001-2.988 1.2001-.728-.0353-1.281-.227-1.66-.5742-.38-.3824-.57-.7306-.57-1.0436 0-.0353.206-.1565.617-.3659.443-.2083.822-.5212 1.138-.9389.348-.4177.522-.9918.522-1.7214 0-1.2872-.458-2.2966-1.375-3.0273-.886-.7307-2.024-1.0954-3.416-1.0954-1.928 0-3.399.5047-4.41 1.5131-.981.9742-1.471 2.1919-1.471 3.6532 0 1.2167.3 2.2438.901 3.078.6.8001 1.565 1.6002 2.893 2.4003a59.0735 59.0735 0 0 0 3.51 1.879c2.024 1.0083 3.621 1.9307 4.791 2.7661 1.2047.8383 2.2252 1.9612 2.988 3.2874.822 1.3555 1.234 3.0438 1.234 5.0605 0 1.7402-.506 3.3227-1.518 4.7498-.98 1.3908-2.325 2.4862-4.032 3.2863-1.676.8001-3.526 1.2001-5.55 1.2001Zm24.013-.4165c-2.15 0-3.858-.7141-5.123-2.1402-1.265-1.426-1.897-3.305-1.897-5.6358v-9.6539c0-.9037-.032-1.5649-.095-1.9826-.031-.4165-.221-.7824-.57-1.0954-.347-.313-.932-.4695-1.754-.4695-.38 0-.664-.0518-.854-.1565-.19-.1388-.284-.4353-.284-.8871 0-.2094.063-.4.19-.5731.126-.2094.316-.3306.569-.3658 1.992-.3141 3.7-.766 5.122-1.3578.443-.173.806-.2777 1.091-.3129h.142c.506 0 .76.3306.76.9918v15.811c0 1.6001.458 2.8355 1.375 3.705.8889.8237 2.0167 1.268 3.178 1.252 1.486 0 2.75-.4001 3.794-1.2002 1.044-.8 1.74-1.6001 2.087-2.4002V30.6598c0-.9048-.031-1.5649-.094-1.9837-.032-.4165-.222-.7824-.57-1.0954-.348-.313-.933-.4695-1.755-.4695-.38 0-.664-.0518-.853-.1565-.19-.1388-.285-.4353-.285-.8871 0-.2094.063-.4.19-.5731.126-.2094.316-.3306.569-.3658 1.992-.3141 3.7-.766 5.123-1.3578.442-.173.806-.2777 1.09-.3129h.143c.506 0 .759.3306.759.9918v18.0558c0 2.0531 1.249 3.0791 3.747 3.0791.537 0 .806.3307.806.9919 0 .486-.269.7824-.806.886l-7.637.5742c-.221 0-.348-.0871-.38-.2601-.03-.14-.047-.4-.047-.7824v-2.9238h-.094a59.7874 59.7874 0 0 1-2.23 2.1909c-.569.4871-1.312.9048-2.23 1.253-.885.3824-1.944.5731-3.177.5731v.0011Zm19.196-.4695a.6655.6655 0 0 1-.3183-.0836.7402.7402 0 0 1-.2517-.2305c-.126-.2083-.19-.4518-.19-.7295.032-.4519.127-.7141.285-.7825.159-.1047.443-.1576.854-.1576.822 0 1.407-.1565 1.755-.4694.348-.313.538-.6789.569-1.0955.064-.4187.095-1.0789.095-1.9836V30.1374c0-.9036-.031-1.5649-.095-1.9836-.031-.4166-.221-.7825-.569-1.0944-.348-.3129-.933-.4705-1.755-.4705-.38 0-.664-.0518-.853-.1565-.19-.1389-.285-.4342-.285-.8872 0-.2083.063-.4.19-.573.126-.2094.316-.3306.569-.3659 2.055-.3483 3.747-.8001 5.075-1.3566.538-.1741.901-.2788 1.091-.313h.142c.506 0 .759.3306.759.9918v3.2345h.142c1.107-1.2177 2.23-2.1743 3.368-2.8697 1.139-.7306 2.166-1.0954 3.083-1.0954 1.044 0 1.866.4342 2.467 1.3037.632.8353.948 1.8095.948 2.9226 0 .9742-.268 1.8437-.806 2.6085-.538.766-1.281 1.1484-2.229 1.1484-.413.008-.821-.0997-1.186-.313-.316-.2094-.49-.3824-.522-.5213.032-.0694.19-.2788.474-.627.285-.3824.427-.8167.427-1.3038 0-.627-.158-1.1306-.474-1.5131-.285-.3835-.68-.5741-1.186-.5741-.537 0-1.217.2953-2.039.8871-.823.5566-1.629 1.2696-2.419 2.1391v12.7319c0 .9047.031 1.5649.094 1.9836.064.4166.269.7825.617 1.0955.348.3129.933.4694 1.755.4694h.285c.253 0 .442.0529.569.1565.126.1047.205.3659.237.7825 0 .2788-.063.5223-.19.7306-.126.2094-.316.3141-.569.3141a88.411 88.411 0 0 0-4.98-.1576c-1.423 0-3.067.054-4.933.1576Zm73.667.4695c-2.15 0-4.063-.5577-5.739-1.6707-1.676-1.1472-2.988-2.6438-3.937-4.4875-.904-1.8243-1.377-3.8701-1.375-5.9488 0-2.6086.553-4.87 1.66-6.7831 1.107-1.9484 2.514-3.4274 4.221-4.4357 1.708-1.0437 3.431-1.5649 5.17-1.5649 2.151 0 4.064.573 5.74 1.7214 1.644 1.0763 2.989 2.6283 3.889 4.4875.937 1.7932 1.427 3.8269 1.423 5.8959 0 2.6096-.569 4.8887-1.707 6.8371-1.107 1.9131-2.514 3.3909-4.222 4.4346-1.707 1.0094-3.415 1.5142-5.123 1.5142Zm0-1.9308c2.151 0 3.716-1.0095 4.696-3.0273 1.012-2.0167 1.518-4.6264 1.518-7.8267 0-2.992-.522-5.4264-1.565-7.3065-1.012-1.9121-2.562-2.8686-4.649-2.8686-2.181 0-3.762.9918-4.743 2.9744-.98 1.9825-1.47 4.5734-1.47 7.7749 0 2.9909.506 5.4617 1.518 7.409 1.012 1.9142 2.577 2.8708 4.695 2.8708Zm23.004 2.1909c-1.55 0-2.878-.626-3.985-1.8779-1.106-1.253-1.66-3.0439-1.66-5.3747V25.7546l-2.751.1047a.5368.5368 0 0 1-.265-.0678.6004.6004 0 0 1-.209-.1934 1.281 1.281 0 0 1-.19-.6788c0-.313.048-.5731.142-.7825.127-.2435.301-.3824.522-.4177 1.107-.2424 1.961-.6259 2.562-1.1472.632-.5576 1.091-1.1483 1.375-1.7743.285-.6612.633-1.653 1.044-2.9755.158-.4518.506-.6777 1.043-.6777.221 0 .443.0694.664.2094.221.1035.332.2777.332.5212l-.332 5.9488 5.55-.3658h.095c.411 0 .616.3306.616.9918 0 .3824-.063.7483-.19 1.0954-.094.3141-.221.4706-.379.4706l-5.312-.1565v15.8628c0 1.1483.205 2.1049.616 2.8697.443.7659 1.154 1.1483 2.135 1.1483.98 0 1.85-.1917 2.608-.5741.412-.1742.664-.2612.759-.2612.222 0 .396.1047.522.313.127.1741.253.4187.38.7306a.628.628 0 0 1 .047.2612c0 .1389-.095.2953-.285.4695-.917.6612-1.786 1.0965-2.608 1.3048-.791.2424-1.74.3648-2.846.3648Zm-76.664-1.0437c.126.2094.316.313.569.313a85.9256 85.9256 0 0 1 4.933-.1565c2.119 0 4.095.0529 5.929.1565a.5553.5553 0 0 0 .299-.0798.633.633 0 0 0 .223-.2332c.126-.2094.189-.4518.189-.7306-.031-.4166-.11-.6778-.237-.7825-.095-.1036-.284-.1565-.569-.1565h-.285c-1.043 0-1.786-.087-2.229-.2612-.443-.173-.743-.4871-.901-.9389-.158-.4871-.237-1.2695-.237-2.3473V25.8571h5.028a.6684.6684 0 0 0 .318-.0834.7475.7475 0 0 0 .251-.2296c.158-.2083.237-.4518.237-.7306-.032-.4166-.127-.6778-.285-.7825-.126-.1388-.332-.2094-.616-.2094h-4.933v-3.1298c0-1.6696.063-3.1309.189-4.3839.118-1.2579.491-2.4706 1.091-3.5486.601-1.0777 1.534-1.6166 2.799-1.6166.145 0 .286.0088.422.0275a9.7156 9.7156 0 0 1 .104-1.7467 7.2973 7.2973 0 0 0-.194-.0033c-2.783.0694-4.949 1.2343-6.498 3.4967-1.518 2.2262-2.277 5.1311-2.277 8.7139v2.1919h-2.846c-.411 0-.696.0518-.854.1565-.158.0695-.253.3483-.284.8343 0 .2788.063.5223.189.7306.159.2094.364.3141.617.3141h3.178v16.2287c0 .94-.032 1.6178-.095 2.0354-.031.3824-.221.7307-.569 1.0437-.348.3129-.933.4694-1.755.4694-.411 0-.696.0529-.854.1565-.126.0695-.205.3306-.237.7825 0 .2788.063.5223.19.7306Z"/><path fill-rule="evenodd" clip-rule="evenodd" d="M142.952 10.8717c-.001.7619-.138 1.5163-.403 2.22-.265.7037-.653 1.3429-1.143 1.8812-.489.5383-1.07.965-1.709 1.256-.639.2909-1.324.4402-2.015.4395-1.396.0012-2.736-.6088-3.724-1.6958-.988-1.0871-1.544-2.5622-1.546-4.1009 0-.7621.137-1.5167.402-2.2205.265-.7039.654-1.3433 1.143-1.8818.49-.5385 1.07-.9655 1.709-1.2566.64-.2911 1.324-.4406 2.016-.44.692-.0008 1.376.1486 2.016.4397.639.291 1.22.718 1.709 1.2566.489.5385.878 1.178 1.143 1.8819.265.704.402 1.4585.402 2.2207Zm-5.27 2.8983c.346.0005.688-.0742 1.008-.2196.319-.1454.61-.3588.854-.628.245-.2691.439-.5888.572-.9406.132-.3519.201-.7291.201-1.1101 0-.3811-.068-.7584-.201-1.1105a2.9383 2.9383 0 0 0-.571-.941c-.245-.2693-.536-.4827-.855-.6282a2.423 2.423 0 0 0-1.008-.2198c-.698-.0003-1.368.3048-1.862.8483-.494.5434-.772 1.2808-.773 2.0501.001.7695.279 1.5071.773 2.0508.494.5437 1.164.8489 1.862.8486Zm-2.31 5.421v27.9588c0 .3118.08.5554.238.7295.158.2094.379.313.664.313.284 0 .521-.1389.711-.4166.19-.2435.364-.6094.522-1.0965.158-.4871.3-.8695.427-1.1483h.237c2.055 1.7048 4.49 2.5567 7.304 2.5567 1.898 0 3.684-.5565 5.36-1.6696 1.676-1.1131 3.004-2.6262 3.985-4.5404 1.011-1.9473 1.517-4.0864 1.517-6.4172 0-2.3661-.442-4.4699-1.328-6.3147-.853-1.8779-2.039-3.3392-3.557-4.3828-1.518-1.0436-3.21-1.5649-5.075-1.5649-1.139 0-2.293.2601-3.463.7825-1.138.4871-2.166 1.2342-3.083 2.2437h-.142v-6.9384c-1.42.4061-2.913.3733-4.317-.0948Zm14.325 24.2526c-1.17 1.9142-2.72 2.8708-4.648 2.8708-1.012 0-1.913-.2435-2.704-.7306-.759-.4871-1.376-1.0613-1.85-1.7225-.443-.6954-.711-1.3225-.806-1.8779V28.2079c1.359-1.6013 3.035-2.4014 5.028-2.4014 2.245 0 3.936.9742 5.075 2.9226 1.138 1.9132 1.707 4.2264 1.707 6.9396 0 3.2356-.6 5.8276-1.802 7.7749ZM12.7.4045c.3354-.2634.7371-.405 1.149-.405.4119 0 .8135.1416 1.149.405 8.56 6.7268 12.44 14.7905 12.685 26.3608.113 5.5245-.37 10.5829-1.841 14.9525-1.51 4.3729-4.193 8.4119-8.143 11.8238-.246.2106-.5335.3543-.8394.4194a1.8028 1.8028 0 0 1-.9206-.0447c-1.21-.3824-1.416-1.9605-2.09-2.9436-.674.9831-.878 2.5601-2.09 2.9425a1.8035 1.8035 0 0 1-.9202.0444c-.3056-.0651-.593-.2087-.8388-.4191-3.95-3.4108-6.634-7.4498-8.143-11.8227-1.47-4.3696-1.954-9.428-1.841-14.9525C.26 15.195 4.14 7.1303 12.7.4045Zm4.426 48.1537c2.472-2.5017 3.962-5.2292 5.014-8.3667 1.325-3.8351 1.707-8.0736 1.592-13.3248-.19-9.0224-2.11-14.893-7.923-20.3437v15.9444c2.273.6435 3.293 3.0967 3.293 5.7967 0 2.7022-1.02 5.1553-3.293 5.7989v13.0449s1.056 1.0723 1.317 1.4503Zm-6.588 0c-2.472-2.5017-3.927-5.2292-4.98-8.3667-1.324-3.8351-1.706-8.0736-1.59-13.3248.19-9.0037 2.099-14.8996 7.888-20.3437v15.9444c-2.273.6435-3.294 3.0967-3.294 5.7967 0 2.7022 1.02 5.1553 3.294 5.7989v13.0449s-1.066 1.0855-1.318 1.4503Zm3.294-23.1925c-.6982-.0006-1.3679.3044-1.8621.848-.4941.5435-.7721 1.281-.7729 2.0504 0 1.6024 1.18 2.8995 2.635 2.8995.6981.0005 1.3679-.3045 1.862-.848.4941-.5435.7722-1.281.773-2.0504 0-1.6013-1.18-2.8995-2.635-2.8995Z"/></g><defs><clipPath id="a"><path fill="#fff" d="M0 0h200v54H0z"/></clipPath></defs></svg>