<svg width="196" height="38" fill="none" xmlns="http://www.w3.org/2000/svg"><path d="M21.644 36.832c-1.1734.0352-2.3358-.2604-3.38-.8595-1.0386-.5949-1.9245-1.4758-2.574-2.5594-2.0451 2.0995-4.6947 3.3121-7.47 3.4189-4.987 0-7.69-3.8716-6.777-9.4218.694-4.1733 3.799-8.3555 4.667-11.7129-1.68-1.1266-4.174-1.9112-5.343.3911L0 15.5754c.612-2.5236 2.091-4.2023 4.228-4.2023 2.137 0 3.717 1.397 5.754.1106h1.625c-.867 5.0272-3.059 9.0485-4.228 16.0874-.712 4.3142.612 6.2745 2.85 6.2745 1.6532-.2272 3.174-1.1258 4.273-2.5248-.8925-2.4547-1.3424-5.0823-1.324-7.7318 0-6.1136 2.548-12.5579 6.822-12.5579 2.192 0 3.817 1.6787 3.817 5.6609 0 3.981-2.191 10.1448-4.986 14.0153.151.922.59 1.7569 1.24 2.3615.65.6036 1.471.9389 2.322.9478 4.073 0 6.922-6.7282 6.922-12.9513 0-6.223-2.447-5.9425-2.237-8.0437a2.1821 2.1821 0 0 1 .1916-.7528c.1076-.2343.2556-.4427.4354-.613.364-.3464.838-.5197 1.318-.4839 1.27 0 2.94 1.7692 2.94 8.949 0 9.1491-4.419 16.7111-10.319 16.7111Zm-.922-22.6436c-1.27 0-2.494 5.158-2.649 10.4869a25.1358 25.1358 0 0 0 .055 3.4189c1.9152-3.4858 3.0839-7.419 3.415-11.4928-.009-1.8106-.31-2.4141-.822-2.4141l.001.0011Zm19.607 22.4122c-.5326.0606-1.0706-.0084-1.577-.2023-.5045-.1927-.9652-.5062-1.35-.9187-.3823-.4102-.6787-.9098-.868-1.463a4.3945 4.3945 0 0 1-.224-1.7301c0-2.4633 2.905-14.7407 2.905-16.7614 0-.9544-.201-1.5177-.968-1.5177-.8558.1535-1.6528.5831-2.293 1.2361v-1.7391c1.3295-1.3479 3.0457-2.1215 4.84-2.1816.5359-.0533 1.0758.0229 1.583.2235.506.2012.966.5197 1.349.9366.382.4158.678.9187.866 1.4753.187.5543.263 1.1478.22 1.7379 0 2.4633-2.903 14.6904-2.903 16.701 0 .9556.2 1.5189.968 1.5189.8442-.1568 1.6356-.5632 2.292-1.1769v1.6787c-1.3245 1.3571-3.0437 2.1325-4.84 2.1828ZM43.89 1.1164a2.527 2.527 0 0 1 1.161.2392c.366.1721.695.4292.961.7544.267.3228.4667.7077.5847 1.127.1179.4195.1511.8628.0973 1.2983-.0982.9298-.4968 1.7875-1.121 2.4119-.6295.6301-1.4401.9874-2.285 1.007-.3975.014-.7931-.0675-1.16-.2392-.3657-.1707-.6939-.4281-.962-.7544-.267-.3228-.4667-.7077-.5847-1.127a3.3089 3.3089 0 0 1-.0973-1.2983c.0983-.9297.4969-1.7874 1.121-2.4119.6297-.6296 1.4403-.9876 2.285-1.007ZM55.196 31.332c-.255 1.5178-.1 2.574.868 2.574.8472-.1458 1.6411-.5535 2.292-1.1769l.091 1.6887c-1.3294 1.3484-3.0456 2.1224-4.84 2.1828-3.16 0-4.383-2.5236-3.917-5.6609l3.105-19.456c1.032-6.4957.675-7.3507-2.485-7.3507l.201-1.5681 9.525-1.3881-4.84 30.1552Zm26.786-.0514c-.256 1.5189-.156 2.6354.867 2.6354.8491-.1773 1.6406-.6044 2.293-1.2372v1.739c-1.3208 1.3635-3.0424 2.1399-4.84 2.1828-.9093.0737-1.8108-.2313-2.531-.8561-.7145-.6187-1.1938-1.516-1.342-2.5125-.7665 1.116-1.7504 2.0222-2.877 2.65-1.1323.6318-2.3775.9703-3.643.9902-6.055 0-8.603-5.8822-7.434-12.9513 1.169-7.068 6.62-12.8395 12.785-12.8395 1.4575-.0342 2.8991.3425 4.192 1.0953l.155-.8942c1.206-6.9182.649-7.1495-2.511-7.1495l.155-1.5681 9.57-1.3881-4.84 30.1049.001-.0011Zm-6.567-17.6655c-3.516 0-5.853 4.5946-6.776 10.2555-.968 5.9425-.356 10.0555 2.95 10.0555 2.237 0 4.785-3.0177 5.552-7.6224l1.882-11.6626c-1.0882-.7259-2.3417-1.0824-3.608-1.026Zm22.658 23.266c-7.078 0-9.014-5.6106-8.146-10.9898l2.31-14.4076c1.069-6.5047.713-7.401-2.447-7.401l.2-1.5681 9.553-1.3378-1.936 12.217c1.4938-1.4262 3.379-2.2386 5.343-2.3024 6.164 0 9.059 5.7716 7.945 12.8396-1.114 7.0691-6.785 12.9501-12.822 12.9501Zm3.306-23.1252c-1.027.0224-2.0214.403-2.845 1.0886-.8174.6802-1.4201 1.6332-1.721 2.7215l-1.425 9.0495c-.868 5.3793.868 7.571 3.06 7.571 3.205 0 5.196-3.9207 6.264-10.3662.95-5.7715.083-10.0342-3.342-10.0342l.009-.0302Zm19.169 13.433c0 4.3141 1.881 6.6165 5.479 6.6165 1.827 0 4.484-1.3971 6.165-3.2479l.712 1.7893c-1.211 1.4117-2.662 2.5394-4.267 3.3172-1.612.781-3.346 1.1981-5.103 1.2272-5.342 0-8.959-4.3734-8.959-10.3159 0-8.7981 6.621-15.4738 12.987-15.4738 3.872 0 6.054 2.3526 6.054 5.0976-.045 4.2627-3.716 9.0496-13.068 10.9898Zm6.566-13.5135c-2.904 0-5.698 4.655-6.466 11.3218 5.854-1.5692 8.347-5.9425 8.402-8.7478-.009-1.5681-.676-2.574-1.945-2.574h.009Zm27.279 22.9252c-.909.0736-1.811-.2314-2.531-.8561-.714-.6188-1.193-1.5161-1.341-2.5125-.738 1.1155-1.699 2.0235-2.806 2.6522-1.112.6326-2.339.9703-3.587.9869-5.954 0-8.502-5.8811-7.306-12.9502 1.196-7.068 6.557-12.8306 12.74-12.8306 1.31-.0074 2.608.2803 3.817.8461h5.808l-3.114 19.3442c-.256 1.5189-.155 2.6354.868 2.6354.849-.1776 1.64-.6046 2.292-1.2372v1.739c-1.321 1.3635-3.042 2.1398-4.84 2.1828Zm-4.685-22.9855c-3.416 0-5.808 4.5946-6.722 10.2555-.968 5.9425-.301 10.0555 2.74 10.0555 2.338 0 4.84-3.1373 5.553-7.6224l1.881-11.6626c-1.027-.7259-2.229-1.0839-3.443-1.026h-.009Zm27.297 4.0917c-1.379 0-1.736-1.1758-2.137-2.413-.137-.6254-.466-1.1774-.929-1.5603-.467-.386-1.039-.5805-1.619-.551-.754-.0446-1.496.2237-2.083.7533-.583.5244-.967 1.2751-1.077 2.1023-.155 1.5189.867 2.8053 2.803 4.655l2.594 2.3527c.964.8022 1.712 1.8846 2.164 3.1294.449 1.2406.582 2.5929.384 3.9095-.658 4.2024-3.817 6.7864-8.046 6.7864-5.096 0-8.347-3.3083-7.991-5.5503.083-.589.353-1.1288.763-1.5177.41-.3912.933-.608 1.475-.6136 1.324 0 1.826 1.1165 2.237 2.5739.264.8383.771 1.5558 1.443 2.0431.674.4877 1.473.7164 2.274.6516.792.042 1.569-.2438 2.184-.8025.609-.5539 1.01-1.344 1.122-2.2129.201-2.0118-.913-3.2479-3.004-5.3301l-2.548-2.4633c-.896-.7525-1.596-1.7583-2.028-2.9137-.43-1.1497-.575-2.4074-.42-3.6413.457-2.6946 2.74-6.033 7.991-6.033 4.073 0 6.621 2.5236 6.393 4.5443-.026.5573-.24 1.0829-.6 1.4697-.36.389-.841.6147-1.345.6315Zm18.639-3.5184h-4.941l-2.392 14.9005c-.512 3.0869-.101 4.4851 1.424 4.4851.813 0 2.091-.5029 3.918-2.5739l.1 2.1816c-.83 1.0815-1.858 1.9507-3.015 2.5483-1.162.6009-2.426.918-3.706.9298-3.461 0-5.196-2.6935-4.374-7.6815l2.392-14.7899h-3.863l.302-2.3023h3.899l1.023-6.6668h5.699l-1.069 6.6657h4.941l-.338 2.3034Z" fill="#9C9C9C"/></svg>